o Arrow
v 1 0 0
v 3 0 0
v 3 4 0
v 4 4 0
v 2 6 0
v 0 4 0
v 1 4 0
v 1 0 1
v 3 0 1
v 3 4 1
v 4 4 1
v 2 6 1
v 0 4 1
v 1 4 1
vn 0 0 -1
vn 1 0 0
vn 0 0 1
vn -1 0 0
vn 0 -1 0
vn 1 1 0
vn -1 1 0
f 1//1 3//1 2//1
f 1//1 7//1 3//1
f 4//1 6//1 5//1
f 2//2 3//2 9//2
f 9//2 3//2 10//2
f 4//6 5//6 11//6
f 11//6 5//6 12//6
f 1//4 8//4 14//4
f 1//4 14//4 7//4
f 6//7 12//7 5//7
f 6//7 13//7 12//7
f 8//5 2//5 9//5
f 8//5 1//5 2//5
f 10//5 4//5 11//5
f 10//5 3//5 4//5
f 13//5 7//5 14//5
f 13//5 6//5 7//5
f 8//3 10//3 14//3
f 8//3 9//3 10//3
f 11//3 12//3 13//3
