o RoundArrow
v 0.0000000 2.0000000 0.0000000
v 0.0000000 3.0000000 0.0000000
v 0.0000000 2.0000000 1.0000000
v 0.0000000 3.0000000 1.0000000
v 0.3472964 1.9696155 0.0000000
v 0.5209445 2.9544232 0.0000000
v 0.3472964 1.9696155 1.0000000
v 0.5209445 2.9544232 1.0000000
v 0.6840403 1.8793852 0.0000000
v 1.0260605 2.8190780 0.0000000
v 0.6840403 1.8793852 1.0000000
v 1.0260605 2.8190780 1.0000000
v 1.0000000 1.7320508 0.0000000
v 1.5000000 2.5980761 0.0000000
v 1.0000000 1.7320508 1.0000000
v 1.5000000 2.5980761 1.0000000
v 1.2855753 1.5320889 0.0000000
v 1.9283628 2.2981334 0.0000000
v 1.2855753 1.5320889 1.0000000
v 1.9283628 2.2981334 1.0000000
v 1.5320889 1.2855753 0.0000000
v 2.2981334 1.9283628 0.0000000
v 1.5320889 1.2855753 1.0000000
v 2.2981334 1.9283628 1.0000000
v 1.7320508 1.0000000 0.0000000
v 2.5980761 1.5000000 0.0000000
v 1.7320508 1.0000000 1.0000000
v 2.5980761 1.5000000 1.0000000
v 1.8793852 0.6840403 0.0000000
v 2.8190780 1.0260605 0.0000000
v 1.8793852 0.6840403 1.0000000
v 2.8190780 1.0260605 1.0000000
v 1.9696155 0.3472964 0.0000000
v 2.9544232 0.5209445 0.0000000
v 1.9696155 0.3472964 1.0000000
v 2.9544232 0.5209445 1.0000000
v 2.0000000 0.0000000 0.0000000
v 3.0000000 0.0000000 0.0000000
v 2.0000000 0.0000000 1.0000000
v 3.0000000 0.0000000 1.0000000
v 1.9696155 -0.3472964 0.0000000
v 2.9544232 -0.5209445 0.0000000
v 1.9696155 -0.3472964 1.0000000
v 2.9544232 -0.5209445 1.0000000
v 1.8793852 -0.6840403 0.0000000
v 2.8190780 -1.0260605 0.0000000
v 1.8793852 -0.6840403 1.0000000
v 2.8190780 -1.0260605 1.0000000
v 1.7320508 -1.0000000 0.0000000
v 2.5980761 -1.5000000 0.0000000
v 1.7320508 -1.0000000 1.0000000
v 2.5980761 -1.5000000 1.0000000
v 1.5320889 -1.2855753 0.0000000
v 2.2981334 -1.9283628 0.0000000
v 1.5320889 -1.2855753 1.0000000
v 2.2981334 -1.9283628 1.0000000
v 1.2855753 -1.5320889 0.0000000
v 1.9283628 -2.2981334 0.0000000
v 1.2855753 -1.5320889 1.0000000
v 1.9283628 -2.2981334 1.0000000
v 1.0000000 -1.7320508 0.0000000
v 1.5000000 -2.5980761 0.0000000
v 1.0000000 -1.7320508 1.0000000
v 1.5000000 -2.5980761 1.0000000
v 0.6840403 -1.8793852 0.0000000
v 1.0260605 -2.8190780 0.0000000
v 0.6840403 -1.8793852 1.0000000
v 1.0260605 -2.8190780 1.0000000
v 0.3472964 -1.9696155 0.0000000
v 0.5209445 -2.9544232 0.0000000
v 0.3472964 -1.9696155 1.0000000
v 0.5209445 -2.9544232 1.0000000
v 0.0000000 -2.0000000 0.0000000
v 0.0000000 -3.0000000 0.0000000
v 0.0000000 -2.0000000 1.0000000
v 0.0000000 -3.0000000 1.0000000
v -0.3472964 -1.9696155 0.0000000
v -0.5209445 -2.9544232 0.0000000
v -0.3472964 -1.9696155 1.0000000
v -0.5209445 -2.9544232 1.0000000
v -0.6840403 -1.8793852 0.0000000
v -1.0260605 -2.8190780 0.0000000
v -0.6840403 -1.8793852 1.0000000
v -1.0260605 -2.8190780 1.0000000
v -1.0000000 -1.7320508 0.0000000
v -1.5000000 -2.5980761 0.0000000
v -1.0000000 -1.7320508 1.0000000
v -1.5000000 -2.5980761 1.0000000
v -1.2855753 -1.5320889 0.0000000
v -1.9283628 -2.2981334 0.0000000
v -1.2855753 -1.5320889 1.0000000
v -1.9283628 -2.2981334 1.0000000
v -1.5320889 -1.2855753 0.0000000
v -2.2981334 -1.9283628 0.0000000
v -1.5320889 -1.2855753 1.0000000
v -2.2981334 -1.9283628 1.0000000
v -1.7320508 -1.0000000 0.0000000
v -2.5980761 -1.5000000 0.0000000
v -1.7320508 -1.0000000 1.0000000
v -2.5980761 -1.5000000 1.0000000
v -1.8793852 -0.6840403 0.0000000
v -2.8190780 -1.0260605 0.0000000
v -1.8793852 -0.6840403 1.0000000
v -2.8190780 -1.0260605 1.0000000
v -1.9696155 -0.3472964 0.0000000
v -2.9544232 -0.5209445 0.0000000
v -1.9696155 -0.3472964 1.0000000
v -2.9544232 -0.5209445 1.0000000
v -2.0000000 -0.0000000 0.0000000
v -3.0000000 -0.0000000 0.0000000
v -2.0000000 -0.0000000 1.0000000
v -3.0000000 -0.0000000 1.0000000
v -1.0000000 0.0000000 0.0000000
v -4.0000000 0.0000000 0.0000000
v -2.5000000 1.5000000 0.0000000
v -1.0000000 0.0000000 1.0000000
v -4.0000000 0.0000000 1.0000000
v -2.5000000 1.5000000 1.0000000
vn 0.0871557 0.9961947 0.0000000
vn -0.0871557 -0.9961947 0.0000000
vn 0.2588190 0.9659258 0.0000000
vn -0.2588190 -0.9659258 0.0000000
vn 0.4226183 0.9063078 0.0000000
vn -0.4226183 -0.9063078 0.0000000
vn 0.5735765 0.8191521 0.0000000
vn -0.5735765 -0.8191521 0.0000000
vn 0.7071068 0.7071068 0.0000000
vn -0.7071068 -0.7071068 0.0000000
vn 0.8191521 0.5735765 0.0000000
vn -0.8191521 -0.5735765 0.0000000
vn 0.9063078 0.4226183 0.0000000
vn -0.9063078 -0.4226183 0.0000000
vn 0.9659258 0.2588190 0.0000000
vn -0.9659258 -0.2588190 0.0000000
vn 0.9961947 0.0871557 0.0000000
vn -0.9961947 -0.0871557 0.0000000
vn 0.9961947 -0.0871557 0.0000000
vn -0.9961947 0.0871557 0.0000000
vn 0.9659258 -0.2588190 0.0000000
vn -0.9659258 0.2588190 0.0000000
vn 0.9063078 -0.4226183 0.0000000
vn -0.9063078 0.4226183 0.0000000
vn 0.8191521 -0.5735765 0.0000000
vn -0.8191521 0.5735765 0.0000000
vn 0.7071068 -0.7071068 0.0000000
vn -0.7071068 0.7071068 0.0000000
vn 0.5735765 -0.8191521 0.0000000
vn -0.5735765 0.8191521 0.0000000
vn 0.4226183 -0.9063078 0.0000000
vn -0.4226183 0.9063078 0.0000000
vn 0.2588190 -0.9659258 0.0000000
vn -0.2588190 0.9659258 0.0000000
vn 0.0871557 -0.9961947 0.0000000
vn -0.0871557 0.9961947 0.0000000
vn -0.0871557 -0.9961947 0.0000000
vn 0.0871557 0.9961947 0.0000000
vn -0.2588190 -0.9659258 0.0000000
vn 0.2588190 0.9659258 0.0000000
vn -0.4226183 -0.9063078 0.0000000
vn 0.4226183 0.9063078 0.0000000
vn -0.5735765 -0.8191521 0.0000000
vn 0.5735765 0.8191521 0.0000000
vn -0.7071068 -0.7071068 0.0000000
vn 0.7071068 0.7071068 0.0000000
vn -0.8191521 -0.5735765 0.0000000
vn 0.8191521 0.5735765 0.0000000
vn -0.9063078 -0.4226183 0.0000000
vn 0.9063078 0.4226183 0.0000000
vn -0.9659258 -0.2588190 0.0000000
vn 0.9659258 0.2588190 0.0000000
vn -0.9961947 -0.0871557 0.0000000
vn 0.9961947 0.0871557 0.0000000
vn 0.0000000 0.0000000 -1.0000000
vn 0.0000000 0.0000000 1.0000000
vn -1.0000000 0.0000000 0.0000000
vn 0.0000000 -1.0000000 0.0000000
vn 1.0000000 1.0000000 0.0000000
vn -1.0000000 1.0000000 0.0000000
f 1//55 2//55 5//55
f 2//55 6//55 5//55
f 3//56 8//56 4//56
f 3//56 7//56 8//56
f 2//1 4//1 8//1
f 2//1 8//1 6//1
f 1//2 5//2 3//2
f 5//2 7//2 3//2
f 5//55 6//55 9//55
f 6//55 10//55 9//55
f 7//56 12//56 8//56
f 7//56 11//56 12//56
f 6//3 8//3 12//3
f 6//3 12//3 10//3
f 5//4 9//4 7//4
f 9//4 11//4 7//4
f 9//55 10//55 13//55
f 10//55 14//55 13//55
f 11//56 16//56 12//56
f 11//56 15//56 16//56
f 10//5 12//5 16//5
f 10//5 16//5 14//5
f 9//6 13//6 11//6
f 13//6 15//6 11//6
f 13//55 14//55 17//55
f 14//55 18//55 17//55
f 15//56 20//56 16//56
f 15//56 19//56 20//56
f 14//7 16//7 20//7
f 14//7 20//7 18//7
f 13//8 17//8 15//8
f 17//8 19//8 15//8
f 17//55 18//55 21//55
f 18//55 22//55 21//55
f 19//56 24//56 20//56
f 19//56 23//56 24//56
f 18//9 20//9 24//9
f 18//9 24//9 22//9
f 17//10 21//10 19//10
f 21//10 23//10 19//10
f 21//55 22//55 25//55
f 22//55 26//55 25//55
f 23//56 28//56 24//56
f 23//56 27//56 28//56
f 22//11 24//11 28//11
f 22//11 28//11 26//11
f 21//12 25//12 23//12
f 25//12 27//12 23//12
f 25//55 26//55 29//55
f 26//55 30//55 29//55
f 27//56 32//56 28//56
f 27//56 31//56 32//56
f 26//13 28//13 32//13
f 26//13 32//13 30//13
f 25//14 29//14 27//14
f 29//14 31//14 27//14
f 29//55 30//55 33//55
f 30//55 34//55 33//55
f 31//56 36//56 32//56
f 31//56 35//56 36//56
f 30//15 32//15 36//15
f 30//15 36//15 34//15
f 29//16 33//16 31//16
f 33//16 35//16 31//16
f 33//55 34//55 37//55
f 34//55 38//55 37//55
f 35//56 40//56 36//56
f 35//56 39//56 40//56
f 34//17 36//17 40//17
f 34//17 40//17 38//17
f 33//18 37//18 35//18
f 37//18 39//18 35//18
f 37//55 38//55 41//55
f 38//55 42//55 41//55
f 39//56 44//56 40//56
f 39//56 43//56 44//56
f 38//19 40//19 44//19
f 38//19 44//19 42//19
f 37//20 41//20 39//20
f 41//20 43//20 39//20
f 41//55 42//55 45//55
f 42//55 46//55 45//55
f 43//56 48//56 44//56
f 43//56 47//56 48//56
f 42//21 44//21 48//21
f 42//21 48//21 46//21
f 41//22 45//22 43//22
f 45//22 47//22 43//22
f 45//55 46//55 49//55
f 46//55 50//55 49//55
f 47//56 52//56 48//56
f 47//56 51//56 52//56
f 46//23 48//23 52//23
f 46//23 52//23 50//23
f 45//24 49//24 47//24
f 49//24 51//24 47//24
f 49//55 50//55 53//55
f 50//55 54//55 53//55
f 51//56 56//56 52//56
f 51//56 55//56 56//56
f 50//25 52//25 56//25
f 50//25 56//25 54//25
f 49//26 53//26 51//26
f 53//26 55//26 51//26
f 53//55 54//55 57//55
f 54//55 58//55 57//55
f 55//56 60//56 56//56
f 55//56 59//56 60//56
f 54//27 56//27 60//27
f 54//27 60//27 58//27
f 53//28 57//28 55//28
f 57//28 59//28 55//28
f 57//55 58//55 61//55
f 58//55 62//55 61//55
f 59//56 64//56 60//56
f 59//56 63//56 64//56
f 58//29 60//29 64//29
f 58//29 64//29 62//29
f 57//30 61//30 59//30
f 61//30 63//30 59//30
f 61//55 62//55 65//55
f 62//55 66//55 65//55
f 63//56 68//56 64//56
f 63//56 67//56 68//56
f 62//31 64//31 68//31
f 62//31 68//31 66//31
f 61//32 65//32 63//32
f 65//32 67//32 63//32
f 65//55 66//55 69//55
f 66//55 70//55 69//55
f 67//56 72//56 68//56
f 67//56 71//56 72//56
f 66//33 68//33 72//33
f 66//33 72//33 70//33
f 65//34 69//34 67//34
f 69//34 71//34 67//34
f 69//55 70//55 73//55
f 70//55 74//55 73//55
f 71//56 76//56 72//56
f 71//56 75//56 76//56
f 70//35 72//35 76//35
f 70//35 76//35 74//35
f 69//36 73//36 71//36
f 73//36 75//36 71//36
f 73//55 74//55 77//55
f 74//55 78//55 77//55
f 75//56 80//56 76//56
f 75//56 79//56 80//56
f 74//37 76//37 80//37
f 74//37 80//37 78//37
f 73//38 77//38 75//38
f 77//38 79//38 75//38
f 77//55 78//55 81//55
f 78//55 82//55 81//55
f 79//56 84//56 80//56
f 79//56 83//56 84//56
f 78//39 80//39 84//39
f 78//39 84//39 82//39
f 77//40 81//40 79//40
f 81//40 83//40 79//40
f 81//55 82//55 85//55
f 82//55 86//55 85//55
f 83//56 88//56 84//56
f 83//56 87//56 88//56
f 82//41 84//41 88//41
f 82//41 88//41 86//41
f 81//42 85//42 83//42
f 85//42 87//42 83//42
f 85//55 86//55 89//55
f 86//55 90//55 89//55
f 87//56 92//56 88//56
f 87//56 91//56 92//56
f 86//43 88//43 92//43
f 86//43 92//43 90//43
f 85//44 89//44 87//44
f 89//44 91//44 87//44
f 89//55 90//55 93//55
f 90//55 94//55 93//55
f 91//56 96//56 92//56
f 91//56 95//56 96//56
f 90//45 92//45 96//45
f 90//45 96//45 94//45
f 89//46 93//46 91//46
f 93//46 95//46 91//46
f 93//55 94//55 97//55
f 94//55 98//55 97//55
f 95//56 100//56 96//56
f 95//56 99//56 100//56
f 94//47 96//47 100//47
f 94//47 100//47 98//47
f 93//48 97//48 95//48
f 97//48 99//48 95//48
f 97//55 98//55 101//55
f 98//55 102//55 101//55
f 99//56 104//56 100//56
f 99//56 103//56 104//56
f 98//49 100//49 104//49
f 98//49 104//49 102//49
f 97//50 101//50 99//50
f 101//50 103//50 99//50
f 101//55 102//55 105//55
f 102//55 106//55 105//55
f 103//56 108//56 104//56
f 103//56 107//56 108//56
f 102//51 104//51 108//51
f 102//51 108//51 106//51
f 101//52 105//52 103//52
f 105//52 107//52 103//52
f 105//55 106//55 109//55
f 106//55 110//55 109//55
f 107//56 112//56 108//56
f 107//56 111//56 112//56
f 106//53 108//53 112//53
f 106//53 112//53 110//53
f 105//54 109//54 107//54
f 109//54 111//54 107//54
f 1//57 3//57 2//57
f 3//57 4//57 2//57
f 113//55 114//55 115//55
f 117//56 116//56 118//56
f 109//58 113//58 116//58
f 111//58 109//58 116//58
f 114//58 110//58 112//58
f 114//58 112//58 117//58
f 113//59 115//59 118//59
f 118//59 116//59 113//59
f 118//60 115//60 117//60
f 117//60 115//60 114//60

